<svg width="1080" height="1080" viewBox="0 0 1080 1080" fill="none" xmlns="http://www.w3.org/2000/svg">
<path d="M933.5 816.25L539.5 972.25V816.25L816.5 709.25V649.25L539.5 756.25V423.25L933.5 265.25V422.25L657.5 529.25V590.25L933.5 483.25V816.25Z" fill="#6B6B6B"/>
<path d="M539.5 972.25V816.25L262.5 709.25V649.25L539.5 756.25V641.25L262.5 529.25V471.25L539.5 580.25V423.25L146.5 265.25V816.25L539.5 972.25Z" fill="#A9A9A9"/>
<path d="M146.5 265.25L303 204.75L380.301 359.246L472.997 396.513L456.5 320.25L539.5 200.25L429 153.75L539.5 107.75L649.5 153.75L539.5 200.25L621.5 320.25L604.779 397.072L697.115 360.044L777.5 204.75L933.5 265.25L697.115 360.044L604.779 397.072L539.5 423.25L472.997 396.513L380.301 359.246L146.5 265.25Z" fill="black"/>
</svg>
