<svg width="1080" height="1080" viewBox="0 0 1080 1080" fill="none" xmlns="http://www.w3.org/2000/svg">
<path d="M542.951 822.132C410.143 822.132 321.023 745.992 321.023 745.992L405.426 875.253L542.951 975.593L676.934 875.253L757.206 745.992C757.206 745.992 669.261 822.132 542.951 822.132Z" fill="#686868"/>
<path d="M478.209 109.9C316.342 139.04 193.533 280.615 193.533 450.874C193.533 621.132 316.342 762.707 478.209 791.847V708.04C375.647 683.486 296.31 599.17 279.068 493.961H478.209V410.7H278.607C294.85 304.136 374.702 218.487 478.209 193.708V109.9Z" fill="#EB9A2E"/>
<path d="M886.467 450.874C886.467 280.615 763.658 139.04 601.791 109.9V193.708C718.022 221.534 804.425 326.113 804.425 450.874C804.425 575.634 718.022 680.214 601.791 708.04L601.791 791.847C763.658 762.707 886.467 621.132 886.467 450.874Z" fill="#EB9A2E"/>
<path d="M540 104.406C525.725 104.406 511.651 105.27 497.829 106.947V794.8C511.651 796.478 525.725 797.341 540 797.341C554.275 797.341 568.349 796.478 582.171 794.8V106.947C568.349 105.27 554.275 104.406 540 104.406Z" fill="#EB9A2E"/>
</svg>
